<?xml version="1.0" encoding="UTF-8" standalone="no"?>
<!-- Created with Inkscape (http://www.inkscape.org/) -->

<svg
   version="1.1"
   id="svg1"
   width="512"
   height="512"
   viewBox="0 0 512 512"
   sodipodi:docname="facebooksvg.svg"
   inkscape:version="1.4.2 (f4327f4, 2025-05-13)"
   xmlns:inkscape="http://www.inkscape.org/namespaces/inkscape"
   xmlns:sodipodi="http://sodipodi.sourceforge.net/DTD/sodipodi-0.dtd"
   xmlns="http://www.w3.org/2000/svg"
   xmlns:svg="http://www.w3.org/2000/svg">
  <defs
     id="defs1" />
  <sodipodi:namedview
     id="namedview1"
     pagecolor="#ffffff"
     bordercolor="#000000"
     borderopacity="0.25"
     inkscape:showpageshadow="2"
     inkscape:pageopacity="0.0"
     inkscape:pagecheckerboard="0"
     inkscape:deskcolor="#d1d1d1"
     inkscape:zoom="1.5917969"
     inkscape:cx="256"
     inkscape:cy="256"
     inkscape:window-width="1920"
     inkscape:window-height="1017"
     inkscape:window-x="1912"
     inkscape:window-y="-8"
     inkscape:window-maximized="1"
     inkscape:current-layer="g1" />
  <g
     inkscape:groupmode="layer"
     inkscape:label="focebook"
     id="g1">
    <path
       style="fill:#000000"
       d="M 200.50567,507.3875 C 141.14556,494.1975 86.96431,458.90167 50.242376,409.5 0.98221855,343.23078 -13.062857,255.19363 13.127877,176.8594 34.956965,111.57048 81.480212,58.422105 143.5,27.92167 179.20459,10.362667 215.32959,2 255.47627,2 c 26.93339,0 50.60671,3.3238246 74.23945,10.423501 45.05307,13.534716 89.97852,42.528586 119.09205,76.859322 33.8548,39.921657 52.98358,81.964537 60.83898,133.717177 2.13735,14.08127 2.44344,50.73843 0.54275,65 -6.9974,52.5039 -27.39723,98.25013 -61.35169,137.57995 -35.79171,41.45794 -86.83334,71.41108 -140.50724,82.45491 C 303.07767,509.11569 298.15438,510 297.38992,510 296.21377,510 296,496.31172 296,421 v -89 h 29.76117 29.76117 l 5.30698,-35.25 c 2.91885,-19.3875 5.53165,-36.0375 5.80622,-37 0.46877,-1.64322 -1.67093,-1.75 -35.06815,-1.75 H 296 v -27.2899 c 0,-30.76494 0.71182,-35.62511 6.50057,-44.3846 1.88078,-2.84597 5.45761,-6.57668 7.94853,-8.29048 8.61811,-5.92942 10.98256,-6.3876 36.0509,-6.986 l 23,-0.54902 0.26428,-31.2759 c 0.20708,-24.50634 -0.009,-31.36803 -1,-31.70153 -0.69535,-0.2341 -6.88928,-1.1651 -13.76428,-2.06889 -17.07755,-2.24502 -50.41047,-3.0624 -61.10652,-1.49843 -34.25312,5.00847 -60.42542,25.52219 -70.95016,55.61039 -5.74243,16.41651 -6.17337,20.33977 -6.66567,60.68436 L 215.81701,258 H 183.40851 151 v 37 37 h 32.5 32.5 v 89 89 l -2.25,-0.0848 c -1.2375,-0.0466 -7.19745,-1.1841 -13.24433,-2.52774 z"
       id="path1" />
  </g>
</svg>
