<?xml version="1.0" encoding="UTF-8" standalone="no"?>
<!-- Created with Inkscape (http://www.inkscape.org/) -->

<svg
   version="1.1"
   id="svg1"
   width="500"
   height="500"
   viewBox="0 0 500 500"
   sodipodi:docname="logo_isotopo.svg"
   inkscape:version="1.4.2 (f4327f4, 2025-05-13)"
   xml:space="preserve"
   xmlns:inkscape="http://www.inkscape.org/namespaces/inkscape"
   xmlns:sodipodi="http://sodipodi.sourceforge.net/DTD/sodipodi-0.dtd"
   xmlns="http://www.w3.org/2000/svg"
   xmlns:svg="http://www.w3.org/2000/svg"><defs
     id="defs1"><rect
       x="44.823068"
       y="330.68447"
       width="368.64687"
       height="50.768986"
       id="rect19" /><rect
       x="37.962395"
       y="321.07953"
       width="348.52222"
       height="76.382167"
       id="rect18" /><rect
       x="97.878945"
       y="382.36821"
       width="32.510112"
       height="41.260524"
       id="rect1" /></defs><sodipodi:namedview
     id="namedview1"
     pagecolor="#ffffff"
     bordercolor="#999999"
     borderopacity="1"
     inkscape:showpageshadow="2"
     inkscape:pageopacity="0"
     inkscape:pagecheckerboard="0"
     inkscape:deskcolor="#d1d1d1"
     inkscape:zoom="1.0931871"
     inkscape:cx="222.74321"
     inkscape:cy="316.96313"
     inkscape:window-width="1920"
     inkscape:window-height="1017"
     inkscape:window-x="1912"
     inkscape:window-y="-8"
     inkscape:window-maximized="1"
     inkscape:current-layer="g1" /><g
     inkscape:groupmode="layer"
     inkscape:label="logo"
     id="g1"
     style="display:inline"
     transform="translate(3.022849,14.24953)"><path
       style="display:inline;fill:#000000;fill-opacity:1"
       d="m 188.2278,183.52451 -14.19999,9.72157 c -8.97351,6.14343 -13.38193,9.42115 -14.15714,8.81138 -1.99379,-1.56828 -27.84286,-32.91465 -27.84286,-33.76418 0,-1.11409 27.14646,-23.75966 36.76434,-30.32131 9.41007,-6.41987 29.87478,-14.55599 45.14605,-20.63608 l 1.69266,5.47071 c 2.86607,9.26313 7.01036,14.02667 15.89695,18.27231 4.67777,2.23484 6.84547,2.62767 14.5,2.62767 7.62522,0 9.84014,-0.39821 14.5,-2.6069 9.01773,-4.27423 14.8284,-11.39558 16.41011,-20.11165 0.37428,-2.0625 0.84909,-3.75 1.05513,-3.75 0.0893,0 33.52022,12.35882 41.78185,18.52702 l -27.37355,26.55043 c -23.09013,22.39583 -29.27646,28.27845 -36.87354,35.17727 v 90.74567 h -66.78233 z m 82.49984,28.94473 13.55017,-13.4509 c 42.70145,-42.38861 51.5729,-50.2571 52.35903,-50.03415 1.42048,0.40287 23.89097,18.4403 23.89097,19.17767 0,0.62538 -24.06115,29.39644 -27.8385,33.28783 -1.56137,1.60849 -2.44497,1.11869 -14.6615,-8.12736 l -13,-9.83901 -1,104.7551 h -33.30017 z"
       id="path1"
       sodipodi:nodetypes="csssscsssssscscccccssssscccc"
       inkscape:label="Camisa" /><path
       d="m 126.0483,354.1634 h -8.25465 v -27.17098 l -14.90092,22.983 h -3.47066 l -15.431426,-22.983 v 27.27049 l -7.864992,-0.0995 v -40.955 h 10.165246 l 14.946672,22.80167 14.45724,-22.80167 h 10.35349 z"
       id="text11"
       style="font-size:65.9042px;-inkscape-font-specification:sans-serif;text-align:end;text-anchor:end;fill:#000000;fill-opacity:1;stroke-width:1.7653"
       inkscape:label="M"
       aria-label="M"
       sodipodi:nodetypes="cccccccccccccc" /><path
       d="m 302.41129,354.1634 h -8.25465 v -27.17098 l -14.90092,22.983 h -3.47066 l -15.43143,-22.983 v 27.27049 l -7.86499,-0.0995 v -40.95499 h 10.16525 l 14.94667,22.80167 14.45724,-22.80167 h 10.35349 z"
       id="text11-2"
       style="font-size:65.9042px;-inkscape-font-specification:sans-serif;text-align:end;text-anchor:end;display:inline;fill:#000000;fill-opacity:1;stroke-width:1.7653"
       inkscape:label="M"
       aria-label="M"
       sodipodi:nodetypes="cccccccccccccc" /><path
       style="font-size:79.5898px;font-family:'Segoe UI';-inkscape-font-specification:'Segoe UI';text-align:end;text-anchor:end;fill:#000000;fill-opacity:1;stroke-width:2.13188"
       d="m 150.97859,354.16343 h -8.88395 v -40.95501 h 8.88395 z"
       id="text12"
       inkscape:label="I"
       aria-label="I" /><path
       d="m 211.38022,354.16341 h -7.48857 l -28.31201,-28.28999 v 28.28999 h -8.19366 v -40.98356 l 6.48666,0.0571 29.257,29.12943 v -29.15797 h 8.25058 z"
       id="text13"
       style="font-size:66.8413px;-inkscape-font-specification:sans-serif;text-align:end;text-anchor:end;fill:#000000;fill-opacity:1;stroke-width:1.7904"
       inkscape:label="N"
       aria-label="N"
       sodipodi:nodetypes="ccccccccccc" /><path
       d="m 236.37914,354.16342 h -9.1455 V 313.2084 h 9.1455 z"
       id="text14"
       style="font-size:80.311px;font-family:'Segoe UI';-inkscape-font-specification:'Segoe UI';text-align:end;text-anchor:end;fill:#000000;fill-opacity:1;stroke-width:2.15118"
       inkscape:label="I"
       aria-label="I"
       sodipodi:nodetypes="ccccc" /><path
       d="m 368.38898,354.16418 h -9.22634 l -4.86169,-9.31476 h -25.41369 l -5.46162,9.31476 h -8.23179 l 21.38854,-40.95533 h 10.41803 z m -17.79534,-16.09076 -8.99954,-17.706 -9.63945,17.706 z"
       id="text16"
       style="font-size:67.4728px;-inkscape-font-specification:sans-serif;text-align:end;text-anchor:end;fill:#000000;fill-opacity:1;stroke-width:1.80731"
       inkscape:label="A"
       aria-label="A"
       sodipodi:nodetypes="ccccccccccccc" /><path
       d="m 417.82865,354.16386 -38.4872,-4.2e-4 v -40.95498 h 8.29992 v 33.61375 l 30.18728,4.2e-4 z"
       id="text17"
       style="font-size:69.5409px;-inkscape-font-specification:sans-serif;text-align:end;text-anchor:end;fill:#000000;fill-opacity:1;stroke-width:1.86271"
       inkscape:label="L"
       aria-label="L"
       sodipodi:nodetypes="ccccccc" /></g></svg>
