<?xml version="1.0" encoding="UTF-8" standalone="no"?>
<!-- Created with Inkscape (http://www.inkscape.org/) -->

<svg
   version="1.1"
   id="svg1"
   width="99.902435"
   height="99.902435"
   viewBox="0 0 99.902435 99.902435"
   sodipodi:docname="perfil.svg"
   inkscape:version="1.4.2 (f4327f4, 2025-05-13)"
   xmlns:inkscape="http://www.inkscape.org/namespaces/inkscape"
   xmlns:sodipodi="http://sodipodi.sourceforge.net/DTD/sodipodi-0.dtd"
   xmlns="http://www.w3.org/2000/svg"
   xmlns:svg="http://www.w3.org/2000/svg">
  <defs
     id="defs1" />
  <sodipodi:namedview
     id="namedview1"
     pagecolor="#ffffff"
     bordercolor="#000000"
     borderopacity="0.25"
     inkscape:showpageshadow="2"
     inkscape:pageopacity="0.0"
     inkscape:pagecheckerboard="0"
     inkscape:deskcolor="#d1d1d1"
     inkscape:zoom="8.1579593"
     inkscape:cx="49.951218"
     inkscape:cy="49.951218"
     inkscape:window-width="1920"
     inkscape:window-height="1017"
     inkscape:window-x="1912"
     inkscape:window-y="-8"
     inkscape:window-maximized="1"
     inkscape:current-layer="g1" />
  <g
     inkscape:groupmode="layer"
     inkscape:label="Image"
     id="g1">
    <path
       style="fill:#000000"
       d="M 44.487803,97.074593 C 30.745169,95.40481 18.432145,87.927621 10.747264,76.585363 -5.0000541,53.343604 2.6666305,21.751324 27.317072,8.3057809 53.370719,-5.905138 85.918088,7.1553478 95.116784,35.512194 c 8.021376,24.727511 -5.794319,51.546895 -30.698392,59.59252 -6.173686,1.9945 -13.647998,2.733238 -19.930589,1.969879 z M 17.921867,75.839683 c 2.622667,-5.044856 7.045118,-9.863518 12.281816,-13.382152 3.170844,-2.130549 8.342346,-4.243441 12.430462,-5.078644 10.643496,-2.174468 21.988181,0.606136 30.243901,7.412837 1.838533,1.515839 4.688941,4.44921 6.0233,6.19861 1.208468,1.584352 2.72069,4.023791 3.559107,5.74137 0.301217,0.617074 0.600829,1.121952 0.665803,1.121952 0.06497,0 0.697886,-0.768293 1.40647,-1.707317 4.639296,-6.148053 7.597776,-13.494764 8.544978,-21.219512 0.277428,-2.262521 0.27683,-7.696112 -0.0011,-9.951219 C 91.516476,32.316588 84.780732,21.197915 74.353905,14.070096 68.65012,10.170968 61.974551,7.6794873 54.926827,6.819452 52.600477,6.5355669 47.409661,6.5379289 44.975608,6.8239801 28.078704,8.8097129 13.789258,20.562716 8.6098484,36.73465 7.2171652,41.083095 6.6184222,44.988246 6.6133827,49.756096 c -0.00534,5.04751 0.5783744,8.982062 1.9842513,13.375041 1.0775796,3.367141 3.177128,7.817507 4.920481,10.429836 0.919272,1.377483 3.128153,4.293011 3.249931,4.28962 0.0605,-0.0017 0.579721,-0.906594 1.153821,-2.01091 z M 48.878047,55.869091 C 42.106654,55.375535 36.405839,51.483673 33.560604,45.4121 29.313022,36.347996 33.276399,25.580641 42.414516,21.358571 c 2.622422,-1.211634 4.329732,-1.555671 7.634263,-1.538369 3.445313,0.01804 5.007312,0.363827 7.804877,1.727805 8.874775,4.326976 12.658524,14.964802 8.488175,23.864093 -2.509945,5.356083 -7.468916,9.208984 -13.07354,10.157561 -1.50769,0.255175 -3.310481,0.378132 -4.390244,0.29943 z"
       id="path1" />
  </g>
</svg>
