<?xml version="1.0" encoding="UTF-8" standalone="no"?>
<!-- Created with Inkscape (http://www.inkscape.org/) -->

<svg
   version="1.1"
   id="svg1"
   width="24"
   height="24"
   viewBox="0 0 24 24"
   sodipodi:docname="twitter.svg"
   inkscape:version="1.4.2 (f4327f4, 2025-05-13)"
   xmlns:inkscape="http://www.inkscape.org/namespaces/inkscape"
   xmlns:sodipodi="http://sodipodi.sourceforge.net/DTD/sodipodi-0.dtd"
   xmlns="http://www.w3.org/2000/svg"
   xmlns:svg="http://www.w3.org/2000/svg">
  <defs
     id="defs1" />
  <sodipodi:namedview
     id="namedview1"
     pagecolor="#ffffff"
     bordercolor="#000000"
     borderopacity="0.25"
     inkscape:showpageshadow="2"
     inkscape:pageopacity="0.0"
     inkscape:pagecheckerboard="0"
     inkscape:deskcolor="#d1d1d1"
     inkscape:zoom="33.958333"
     inkscape:cx="12"
     inkscape:cy="12"
     inkscape:window-width="1920"
     inkscape:window-height="1017"
     inkscape:window-x="1912"
     inkscape:window-y="-8"
     inkscape:window-maximized="1"
     inkscape:current-layer="g1" />
  <g
     inkscape:groupmode="layer"
     inkscape:label="Image"
     id="g1">
    <path
       style="fill:#000000"
       d="M 10.898438,23.950581 C 8.4625988,23.699415 6.2285403,22.777857 4.3932062,21.267146 2.097823,19.377757 0.57121553,16.687552 0.13756532,13.767807 -0.33778196,10.567317 0.47973399,7.3781281 2.4527994,4.73591 2.8822901,4.1607603 4.1607603,2.8822901 4.73591,2.4527994 8.0120996,0.00631839 12.165895,-0.64897978 15.977481,0.67934169 c 2.504174,0.87269391 4.763295,2.68454281 6.202621,4.97459521 0.857885,1.3649437 1.472103,3.0651491 1.708361,4.7288761 0.119628,0.842416 0.119628,2.391958 0,3.234375 -0.291558,2.053148 -1.08234,3.961159 -2.339307,5.644312 -0.431974,0.578438 -1.709218,1.855682 -2.287656,2.287656 -1.650745,1.232765 -3.506749,2.014804 -5.493693,2.314804 -0.717519,0.108335 -2.219157,0.153667 -2.869369,0.08662 z M 8.9794043,16.710937 c 1.2064797,-1.379296 2.2056507,-2.506563 2.2203787,-2.505035 0.01473,0.0015 0.881076,1.122171 1.925217,2.490321 1.044141,1.36815 1.919531,2.495628 1.945313,2.505506 0.02578,0.0099 1.139982,0.01248 2.476002,0.0058 l 2.429128,-0.01219 -1.791305,-2.367187 c -0.985218,-1.301953 -2.39805,-3.170143 -3.139626,-4.151533 l -1.34832,-1.784345 2.43805,-2.7859671 C 17.47517,6.5739978 18.677645,5.1990234 18.806409,5.0507812 l 0.234117,-0.2695312 -1.235107,0.00311 -1.235107,0.00311 -1.992187,2.290662 C 13.482422,8.3379891 12.575391,9.369467 12.5625,9.3702981 12.549609,9.3711291 11.759359,8.3389333 10.806387,7.0765295 L 9.0737118,4.78125 l -2.5239973,0 c -2.0071849,0 -2.5166118,0.011998 -2.487928,0.058594 0.019838,0.032227 1.3718175,1.8063286 3.0043986,3.9424491 2.5697959,3.3624021 2.9602429,3.8940361 2.9081033,3.9596811 -0.033124,0.0417 -1.2954934,1.490503 -2.8052648,3.219554 -1.5097714,1.729051 -2.760821,3.169265 -2.7801102,3.200475 -0.027104,0.04386 0.2411725,0.05675 1.1809101,0.05675 H 6.7858048 Z M 11.320313,11.993256 C 8.896875,8.8211069 6.9070312,6.2065676 6.8984375,6.1831686 6.8895203,6.1588889 7.1849922,6.140625 7.5867055,6.140625 h 0.703893 L 8.4508878,6.3398437 C 8.7405035,6.6997984 17.0625,17.719121 17.0625,17.742652 c 0,0.01263 -0.300586,0.02189 -0.667969,0.02056 l -0.667968,-0.0024 z"
       id="path1" />
  </g>
</svg>
